<svg version="1.1" id="Layer_1" xmlns="http://www.w3.org/2000/svg" x="0" y="0" viewBox="0 0 264.6 52.5" style="enable-background:new 0 0 264.6 52.5" xml:space="preserve"><style>.st0{fill:#fff}</style><g id="Cap-logo-white-special_x5F_use_x5F_small_x5F_sizes-RGB.eps_1_"><path class="st0" d="m3.2 39.6 5.5 1.9-.7-1.9zM12.1 39.6H8.6l3.5 8.6zM12.1 35.6l-9 3.3h9zM17.2 33.7l-4.5 1.7V48z"/></g><path class="st0" d="M253 36.5c0-.5.4-1 1-1h7c.5 0 1 .4 1 1V40c0 .5-.4 1-1 1h-.7c-.5 0-1.3.2-1.8.5l-2.6 1.4c-.5.3-.7.1-.4-.4l.3-.6c.2-.5 0-.9-.6-.9H254c-.5 0-1-.4-1-1v-3.5zM166 41.1c-.8-.3-1.6-.5-1.6-1.2 0-.5.4-.9.9-.9h.2c.5 0 .8.2 1 .7 0 .1.1.2.2.1l1.4-.7c.1 0 .1-.2 0-.3-.1-.2-.3-.4-.4-.6-.5-.6-1.2-1-2.3-1h-.2c-1.8 0-2.9 1.1-2.9 2.7 0 1.7 1.1 2.3 2.4 2.8.9.3 1.6.5 1.6 1.3 0 .6-.5.8-1 .8h-.4c-.5 0-.8-.2-1-.7 0-.1-.1-.2-.2-.1l-1.4.7c-.1 0-.1.2 0 .3.1.2.3.5.5.7.5.5 1.2.9 2.2.9h.5c1.8 0 2.9-1.1 2.9-2.7-.1-1.6-1.1-2.3-2.4-2.8M172.8 44.1c0 .5-.4.8-.9.8s-.9-.4-.9-.8v-1.9c0-.4.4-.8.9-.8s.9.4.9.8v1.9zm-.9-4.5c-1.8 0-2.9 1.1-2.9 2.6V44c0 1.6 1.2 2.6 2.9 2.6s2.9-1.1 2.9-2.6v-1.8c0-1.5-1.2-2.6-2.9-2.6M180.2 37.5c-.2-.1-.6-.1-1-.1-2.1 0-2.9 1.5-2.9 2.6v.4c0 .1 0 .1-.2.1h-.3c-.1 0-.1 0-.1.1v1.6c0 .1.1.1.1.1h.3c.1 0 .2 0 .2.1v4c0 .1 0 .1.1.1h1.7c.1 0 .1 0 .1-.1v-4c0-.1 0-.1.2-.1h.9c.1 0 .1 0 .1-.1v-1.5c0-.1 0-.1-.1-.1h-.9c-.1 0-.2 0-.2-.1V40c0-.5.4-.8.9-.8.2 0 .4 0 .5.1.1 0 .2 0 .2-.1l.4-1.5c.1-.1.1-.2 0-.2M184.4 39.8h-1c-.1 0-.2 0-.2-.1v-.9c0-.1 0-.1-.1-.1h-.9c-.1 0-.1 0-.2.1l-1.8 1.8v1c0 .1 0 .1.1.1h.7c.1 0 .2.1.2.2v2.2c0 1.7 1.1 2.6 2.4 2.6h.6c.1 0 .2-.1.2-.2V45c0-.1 0-.1-.1-.1h-.2c-.6 0-.9-.4-.9-1v-2.1c0-.1 0-.2.2-.2h1c.1 0 .1 0 .1-.1V40c0-.2 0-.2-.1-.2M194.1 39.8h-1.7c-.1 0-.1 0-.2.1l-.6 2.7c-.1.3-.1.7-.1 1 0-.3-.1-.7-.2-1l-.6-2.7c0-.1-.1-.1-.2-.1h-1.4c-.1 0-.1 0-.1.1l-.6 2.7c-.1.3-.1.7-.2 1 0-.3-.1-.7-.1-1l-.7-2.7c0-.1-.1-.1-.1-.1h-1.8c-.1 0-.2.1-.1.2l2 6.3c0 .1.1.1.1.1h1.3c.1 0 .1 0 .1-.1l.8-3c.1-.3.2-.9.2-.9s.1.6.2.9l.8 3c0 .1.1.1.1.1h1.3c.1 0 .1 0 .1-.1l2.1-6.3c-.2-.1-.3-.2-.4-.2M197.5 44.9h-.5c-.3 0-.5-.2-.5-.6 0-.3.2-.5.5-.5h1.2c.1 0 .1.2.1.2 0 .6-.5.9-.8.9m-.1-5.3c-.9 0-1.6.3-2 .7-.3.2-.5.5-.7.9-.1.1 0 .3 0 .3l1.4.7c.1 0 .2 0 .2-.1.2-.5.5-.7 1-.7s.9.4.9.8v.1c0 .1 0 .2-.1.2h-1.3c-1.3 0-2.3.7-2.3 1.9v.1c0 1.2.9 2 2.2 2h.5c.4 0 .8-.1 1.1-.4h.1v.2c0 .1.1.1.2.1h1.4c.1 0 .1 0 .1-.1v-4.1c.2-1.5-.9-2.6-2.7-2.6M205.1 39.8h-.4c-.5 0-1.1.3-1.3.5-.1.1-.2.1-.2-.1v-.3c0-.1 0-.1-.1-.1h-1.4c-.1 0-.1 0-.1.1v6.3c0 .1.1.1.1.1h1.7c.1 0 .1 0 .1-.1v-3.8c0-.5.4-.9.9-.9.2 0 .4 0 .6.1.1 0 .2 0 .2-.1V40c0-.1 0-.2-.1-.2M209.6 42.3H208c-.1 0-.2-.1-.2-.2v-.2c0-.4.4-.7.9-.7s.9.3.9.7v.2c.2.1.1.2 0 .2m-.8-2.7c-1.7 0-2.9 1.2-2.9 2.6v1.9c0 1.6 1.2 2.6 2.9 2.6 1 0 1.6-.3 2.1-.8.2-.2.4-.5.6-.8.1-.1 0-.3 0-.3l-1.4-.7c-.1 0-.2 0-.2.1-.2.5-.5.7-1 .7s-.9-.4-.9-.8v-.3c0-.1 0-.2.2-.2h3.5c.1 0 .1 0 .1-.1v-1.3c-.2-1.4-1.4-2.6-3-2.6M218.8 43.4h-.9c-.1 0-.2-.1-.2-.2l.3-1.2c.1-.5.3-1.2.3-1.5h.1c0 .4.1 1 .3 1.5l.3 1.2c0 .1 0 .2-.2.2m.3-5.8c0-.1-.1-.1 0 0l-1.4-.1c-.1 0-.1 0-.1.1l-2.8 8.7c0 .1 0 .2.1.2h1.8c.1 0 .1 0 .1-.1l.4-1.3c0-.1.1-.1.2-.1h1.9c.1 0 .1 0 .2.1l.4 1.3c0 .1.1.1.1.1h1.8c.1 0 .2-.1.1-.2l-2.8-8.7zM226.2 44c0 .5-.4.8-.9.8s-.9-.4-.9-.8v-1.7c0-.5.4-.8.9-.8s.9.3.9.8V44zm1.9-6.5h-1.7c-.1 0-.1 0-.1.1v2.6c-.3-.3-.8-.4-1.1-.4-1.6 0-2.7 1.1-2.7 2.6v1.5c0 1.7 1 2.6 2.7 2.6.4 0 .9-.1 1.2-.4.1-.1.2 0 .2.1v.2c0 .1 0 .1.1.1h1.4c.1 0 .1 0 .1-.1l-.1-8.9c.1.1.1 0 0 0M235.6 39.8h-1.8c-.1 0-.1 0-.2.1l-1.1 3.1c-.1.2-.1.5-.2.7 0-.2-.1-.5-.2-.7l-1.1-3.1c0-.1-.1-.1-.1-.1h-1.8c-.1 0-.2.1-.1.2l2.6 6.3c0 .1.1.1.1.1h1.3c.1 0 .1 0 .2-.1l2.6-6.3c0-.1-.1-.2-.2-.2M238.3 39.8h-1.7c-.1 0-.1 0-.1.1v6.3c0 .1 0 .1.1.1h1.7c.1 0 .1 0 .1-.1l-.1-6.4c.2 0 .1 0 0 0M242.5 41.4c.4 0 .8.3 1 .9 0 .1.1.1.2.1l1.4-.6c.1 0 .1-.1.1-.2-.1-.3-.3-.6-.5-.8-.5-.6-1.2-1-2.3-1-1.8 0-2.9 1.1-2.9 2.6v1.8c0 1.6 1.1 2.6 2.9 2.6 1 0 1.7-.3 2.1-.8.2-.3.4-.6.6-1 0-.1 0-.2-.1-.2l-1.4-.6c-.1 0-.2 0-.2.1-.2.6-.6.9-1 .9-.5 0-.9-.4-.9-.8v-1.9c.1-.8.5-1.1 1-1.1M249.4 42.3h-1.6c-.1 0-.2-.1-.2-.2v-.2c0-.4.4-.7.9-.7s.9.3.9.7v.2c.2.1.2.2 0 .2m-.8-2.7c-1.7 0-2.9 1.2-2.9 2.6v1.9c0 1.6 1.2 2.6 2.9 2.6.9 0 1.6-.3 2.1-.8.2-.2.4-.5.6-.8.1-.1 0-.3 0-.3l-1.4-.7c-.1 0-.2 0-.2.1-.2.5-.5.7-1 .7s-.9-.4-.9-.8v-.3c0-.1 0-.2.2-.2h3.5c.1 0 .1 0 .1-.1v-1.3c-.1-1.4-1.3-2.6-3-2.6M237.5 37.1c-.6 0-1 .5-1 1s.5 1 1 1c.6 0 1-.5 1-1s-.5-1-1-1"/><g><path class="st0" d="M25.6 45.5c-.1.1-.2.1-.3.2-.1.1-.3.2-.5.3-.2.1-.5.2-.8.2-.3.1-.7.1-1.1.1-.8 0-1.4-.1-2-.4-.6-.2-1-.6-1.4-1-.4-.4-.6-1-.8-1.6-.2-.6-.3-1.3-.3-2s.1-1.4.3-2c.2-.6.5-1.1.8-1.6s.8-.8 1.4-1c.5-.2 1.2-.4 1.9-.4.4 0 .7 0 1 .1.3.1.6.1.8.2s.4.2.5.3c.1.1.3.2.3.2.1.1.2.2.2.3.1.1.1.2.1.3 0 .2-.1.4-.2.6-.1.2-.3.4-.5.5-.1-.1-.2-.2-.4-.3-.1-.1-.3-.2-.5-.3-.2-.1-.4-.2-.6-.2h-.7c-.5 0-.9.1-1.2.3-.3.2-.6.4-.8.8-.2.3-.3.7-.4 1.1-.1.4-.1.8-.1 1.2 0 .4 0 .9.1 1.3s.2.8.4 1.1c.2.3.5.6.8.7.3.2.8.3 1.2.3.3 0 .5 0 .7-.1.2-.1.4-.1.6-.2.2-.1.3-.2.4-.3l.3-.3.2.2c.1.1.1.2.2.3.1.1.1.2.2.3 0 .1.1.2.1.3 0 .1 0 .2-.1.3.4 0 .3.1.2.2M31 42.7h-.4c-.2 0-.5 0-.7.1-.2 0-.4.1-.6.2s-.3.2-.4.4c-.1.2-.2.3-.2.6s.1.5.2.7c.2.2.4.3.8.3.2 0 .3 0 .5-.1.2 0 .3-.1.4-.2.1-.1.2-.2.3-.2.1-.1.1-.2.1-.2v-1.6zm1.8 1.7c0 .7.1 1.3.3 1.6-.2.1-.3.1-.5.2s-.3 0-.5 0c-.3 0-.6-.1-.8-.2-.2-.1-.3-.3-.3-.6-.2.2-.5.4-.8.6s-.8.2-1.2.2c-.3 0-.5 0-.8-.1-.3-.1-.5-.2-.7-.3-.2-.2-.4-.4-.5-.6-.1-.3-.2-.6-.2-1 0-.5.1-.9.3-1.2.2-.3.5-.5.9-.7.3-.2.7-.3 1.1-.4.4-.1.8-.1 1.1-.1h.6v-.3c0-.4-.1-.6-.3-.8-.2-.2-.5-.2-.9-.2s-.8.1-1.1.2c-.3.1-.6.3-.9.5-.1-.2-.2-.3-.3-.5-.1-.2-.1-.3-.1-.4 0-.1.1-.3.2-.4.1-.1.3-.2.6-.3.3-.1.5-.2.9-.2.3-.1.7-.1 1-.1.5 0 .9.1 1.3.2s.6.3.9.5c.2.2.4.5.5.8.1.3.1.7.1 1.1l.1 2.5zM38.9 42.6c0-.3 0-.5-.1-.8 0-.2-.1-.5-.2-.6-.1-.2-.3-.3-.4-.4-.2-.1-.4-.1-.7-.1-.4 0-.7.1-.8.2-.2.2-.2.3-.2.5v3c.1.1.2.2.4.3.2.1.4.2.7.2.5 0 .8-.2 1.1-.6.1-.5.2-1.1.2-1.7m-2.6-2.7c.2-.2.4-.4.7-.5.3-.2.7-.3 1.2-.3.3 0 .7.1 1 .2.3.1.6.3.8.6.2.3.4.6.6 1.1.1.4.2 1 .2 1.6 0 .7-.1 1.3-.3 1.8-.2.5-.4.9-.7 1.1-.3.3-.6.5-.9.6-.3.1-.7.2-1 .2-.3 0-.5 0-.7-.1-.2-.1-.4-.1-.5-.2-.1-.1-.2-.2-.3-.2-.1-.1-.1-.1-.1-.2v3.5h-1.9v-9.6h.7c.3 0 .6.1.8.2.2-.2.4 0 .4.2M42.3 45c-.1-.2-.1-.4-.1-.6v-7.1h1.1c.2 0 .3.1.4.2l.3.3c.1.1.1.3.1.6v1h2v1.4h-2v3c0 .7.3 1 .8 1 .1 0 .3 0 .4-.1.1 0 .2-.1.3-.1.1-.1.2-.1.2-.2l.1-.1c.1.2.2.4.3.5.1.2.1.3.1.4 0 .1-.1.2-.1.4-.1.1-.2.2-.4.3-.2.1-.4.3-.6.3-.3.1-.5.1-.8.1-.6 0-1-.1-1.4-.3-.4-.3-.6-.6-.7-1M51.6 41.9c0-.5-.1-.8-.3-1.1-.2-.3-.5-.4-.9-.4s-.7.1-.9.4c-.2.3-.3.6-.3 1.1h2.4zm-.7 2.9c.2 0 .4 0 .6-.1.2-.1.3-.1.5-.2.1-.1.3-.2.4-.2.1-.1.2-.2.3-.2.1.1.2.3.4.5.1.2.2.4.2.5 0 .2-.1.4-.4.6-.2.2-.5.3-.8.4-.4.1-.8.2-1.3.2-.4 0-.9-.1-1.3-.2s-.8-.3-1.2-.6c-.3-.3-.6-.7-.8-1.1-.2-.5-.3-1.1-.3-1.8 0-.6.1-1.1.3-1.5.2-.4.4-.8.7-1.1.3-.3.7-.5 1-.6.4-.1.8-.2 1.2-.2.5 0 1 .1 1.3.2.4.2.7.4.9.7.2.3.4.6.5 1 .1.4.2.7.2 1.1v.8h-4.2c0 .5.2 1 .5 1.3.3.3.7.5 1.3.5M56.6 40c.1-.1.1-.2.2-.3l.3-.3c.1-.1.3-.2.5-.2.2-.1.3-.1.5-.1h.4c.1 0 .2.1.4.1.1.1.2.1.3.2.1.1.1.2.1.3 0 .2-.1.4-.2.7-.1.3-.2.5-.3.7-.2-.1-.3-.2-.5-.3-.2-.1-.3-.1-.6-.1s-.5.1-.7.3c-.2.2-.3.4-.3.6v4.6h-1.9v-6.8h.7c.3 0 .6.1.8.2.1 0 .2.1.3.4M62.1 40c.1-.1.1-.2.2-.3l.3-.3c.1-.1.3-.2.5-.2.2-.1.3-.1.5-.1h.4c.1 0 .2.1.4.1.1.1.2.1.3.2.1.1.1.2.1.3 0 .2-.1.4-.2.7-.1.3-.2.5-.3.7-.2-.1-.3-.2-.5-.3-.2-.1-.4-.1-.6-.1-.3 0-.5.1-.7.3-.2.2-.3.4-.3.6v4.6h-1.9v-6.8h.7c.3 0 .6.1.8.2.1 0 .2.1.3.4M69.4 42.7H69c-.2 0-.5 0-.7.1-.2 0-.4.1-.6.2-.2.1-.3.2-.4.4-.1.2-.2.3-.2.6s.1.5.2.7c.2.2.4.3.8.3.2 0 .3 0 .5-.1.2 0 .3-.1.4-.2.1-.1.2-.2.3-.2.1-.1.1-.2.1-.2v-1.6zm1.8 1.7c0 .7.1 1.3.3 1.6-.2.1-.3.1-.5.1h-.5c-.3 0-.6-.1-.8-.2-.2-.1-.3-.3-.3-.6-.2.2-.5.4-.8.6-.3.2-.8.2-1.2.2-.3 0-.5 0-.8-.1-.3-.1-.5-.2-.7-.3-.2-.2-.4-.4-.5-.6-.1-.3-.2-.6-.2-1 0-.5.1-.9.3-1.2.2-.3.5-.5.9-.7.3-.2.7-.3 1.1-.4.4-.1.8-.1 1.1-.1h.6v-.3c0-.4-.1-.6-.3-.8-.2-.2-.5-.2-.9-.2s-.8.1-1.1.2c-.3.1-.6.3-.9.5-.1-.2-.2-.3-.3-.5-.1-.2-.1-.3-.1-.4 0-.1.1-.3.2-.4.1-.1.3-.2.6-.3.3-.1.5-.2.9-.2.3-.1.7-.1 1-.1.5 0 .9.1 1.3.2s.6.3.9.5c.2.2.4.5.5.8.1.3.1.7.1 1.1l.1 2.6zM100.8 41.7l-4.3-4.3c-.1-.1-.4-.1-.5 0l-.8.8 3.5 3.5c.1.1.1.4 0 .5l-3.6 3.6.8.8c.1.1.4.1.5 0l4.4-4.4c.1-.2.1-.4 0-.5M93.5 37.8l-.3-.3c-.1-.1-.4-.1-.5 0l-.8.8.6.6 1.1 1.1 1.1-1.1-1.2-1.1zM93.4 44.1l-1.1 1.1-.6.6.8.8c.1.1.4.1.5 0l.3-.3 1.1-1.1-1-1.1z"/><path class="st0" d="M95.3 41.7c.1.1.1.4 0 .5l-1.9 1.9 1.1 1.1 3-3c.1-.1.1-.4 0-.5l-2.9-2.9-1.1 1.1 1.8 1.8zM88.3 41.8l3-3-1.1-1.1-.3-.3c-.1-.1-.4-.1-.5 0L85 41.8c-.1.1-.1.4 0 .5l4.3 4.3c.1.1.4.1.5 0l.3-.3 1.1-1.1-2.9-2.9c-.2-.1-.2-.4 0-.5"/><path class="st0" d="m91.6 41.8 1.3-1.3-1.1-1.1-.6-.6-3 3c-.1.1-.1.4 0 .5l2.9 2.9.6-.6 1.1-1.1-1.2-1.2c-.1-.1-.1-.4 0-.5"/><path class="st0" d="m91.6 42.3 1.2 1.2 1.3-1.3c.1-.1.1-.4 0-.5l-1.2-1.2-1.3 1.3c-.1.1-.1.4 0 .5M104.2 40.8c0-.5.1-1 .3-1.4.2-.4.4-.8.8-1.1.3-.3.7-.6 1.2-.7.5-.2 1.1-.3 1.7-.3.8 0 1.4.1 1.9.3.5.2.9.4 1.2.7.3.3.5.6.6.9.1.3.2.5.2.7 0 .1 0 .2-.1.3-.1.1-.2.1-.3.1h-1.1c-.1 0-.2 0-.2-.1-.1 0-.1-.1-.1-.2 0 0-.1-.1-.1-.2l-.4-.4c-.2-.2-.4-.2-.6-.3-.3-.1-.6-.2-1-.2-.7 0-1.2.2-1.6.5-.4.4-.6.8-.6 1.4V43c0 .7.2 1.3.6 1.6.4.3.9.5 1.6.5.3 0 .6 0 .9-.1.3-.1.5-.2.7-.3.2-.2.4-.4.5-.6.1-.3.2-.6.2-1V43h-1.6c-.1 0-.2 0-.2-.1-.1-.1-.1-.2-.1-.2v-.9c0-.1 0-.2.1-.2.1-.1.2-.1.2-.1h3c.1 0 .2 0 .2.1.1.1.1.2.1.2v1.3c0 .5-.1 1-.2 1.5-.2.4-.4.8-.7 1.1-.3.3-.7.6-1.2.7-.5.2-1.1.3-1.7.3-.7 0-1.2-.1-1.7-.3-.5-.2-.9-.4-1.2-.7-.3-.3-.6-.7-.7-1.1-.2-.4-.3-.9-.3-1.5V41.3c-.4-.2-.4-.3-.3-.5M116 41.2c-.3 0-.5 0-.6.1-.2.1-.3.2-.5.3-.1.1-.2.2-.3.4-.1.1-.1.3-.1.4h3c0-.1-.1-.3-.1-.4 0-.1-.1-.3-.2-.4-.1-.1-.3-.2-.4-.3-.2-.1-.5-.1-.8-.1m-3.2 2c0-.5.1-1 .2-1.4.1-.4.4-.8.6-1.1.3-.3.6-.6 1-.8.4-.2.8-.3 1.3-.3s.9.1 1.3.3c.4.2.7.4 1 .7s.5.7.6 1.1c.2.4.2.8.2 1.3v.6c0 .1 0 .2-.1.2-.1.1-.2.1-.2.1h-4.4c0 .2 0 .4.1.5.1.2.2.3.3.4.1.1.3.2.5.2.2.1.4.1.6.1.3 0 .5 0 .7-.1.2-.1.3-.1.4-.2.1-.1.2-.1.2-.1h1.3c.1 0 .2 0 .3.1.1.1.1.2.1.2 0 .1-.1.3-.2.5s-.3.4-.6.6c-.3.2-.6.3-.9.5-.4.1-.8.2-1.3.2s-.9-.1-1.3-.3c-.4-.2-.7-.4-1-.7-.3-.3-.5-.7-.6-1.1 0-.5-.1-1-.1-1.5M122.5 44.1c0 .3.1.5.2.7.1.2.4.2.8.2h.8c.1 0 .2 0 .2.1.1.1.1.2.1.2v.9c0 .1 0 .2-.1.2-.1.1-.2.1-.2.1h-1c-.8 0-1.5-.2-1.9-.6s-.7-1-.7-1.8v-2.8h-.9c-.1 0-.2 0-.2-.1-.1-.1-.1-.2-.1-.2v-.9c0-.1 0-.2.1-.2.1-.1.2-.1.2-.1h.9v-2.1c0-.1 0-.2.1-.2.1-.1.2-.1.2-.1h1c.1 0 .2 0 .2.1.1.1.1.2.1.2v2.1h1.7c.1 0 .2 0 .2.1.1.1.1.2.1.2v.9c0 .1 0 .2-.1.2-.1.1-.2.1-.2.1h-1.7v2.8h.2zM131.3 43.2l-1.4-3.7-1.4 3.7h2.8zm-.7-5.7c.1 0 .2 0 .3.1.1.1.1.2.2.3l3.2 8.2v.1c0 .1 0 .2-.1.2-.1.1-.2.1-.2.1h-1c-.2 0-.3 0-.4-.1-.1-.1-.1-.1-.1-.2l-.6-1.5h-4.1l-.6 1.5c0 .1-.1.1-.1.2-.1.1-.2.1-.4.1h-.9c-.1 0-.2 0-.2-.1-.1-.1-.1-.2-.1-.2v-.1l3.2-8.2c.1-.1.1-.3.2-.3.1-.1.2-.1.3-.1h1.4zM140 43.5v-.7c-.1-.6-.2-1-.5-1.2s-.7-.4-1.1-.4c-.4 0-.8.1-1.1.4-.3.3-.5.6-.5 1.1v1c0 .5.2.8.5 1.1.3.3.7.4 1.1.4.4 0 .8-.1 1.1-.4.2-.3.4-.7.5-1.3m-1.3 3.2c-.3 0-.5 0-.7-.1-.2-.1-.4-.1-.6-.2-.2-.1-.3-.2-.4-.3l-.3-.3v2.8c0 .1 0 .2-.1.2-.1.1-.2.1-.2.1h-1c-.1 0-.2 0-.2-.1-.1-.1-.1-.2-.1-.2v-8.4c0-.1 0-.2.1-.2.1-.1.2-.1.2-.1h1c.1 0 .2 0 .2.1.1.1.1.2.1.2v.3l.3-.3c.1-.1.3-.2.4-.3.2-.1.4-.1.6-.2.2-.1.5-.1.7-.1.4 0 .8.1 1.2.3.4.2.7.4.9.7.2.3.4.6.6 1 .1.4.2.8.2 1.2v1c0 .4-.1.8-.2 1.2-.1.4-.3.7-.6 1-.2.3-.6.5-.9.7-.3-.1-.7 0-1.2 0M147.4 43.5v-.7c-.1-.6-.2-1-.5-1.2s-.7-.4-1.1-.4c-.4 0-.8.1-1.1.4-.3.3-.5.6-.5 1.1v1c0 .5.2.8.5 1.1.3.3.7.4 1.1.4.4 0 .8-.1 1.1-.4.3-.3.4-.7.5-1.3m-1.2 3.2c-.3 0-.5 0-.7-.1-.2-.1-.4-.1-.6-.2-.2-.1-.3-.2-.4-.3l-.3-.3v2.8c0 .1 0 .2-.1.2-.1.1-.2.1-.2.1h-1c-.1 0-.2 0-.2-.1-.1-.1-.1-.2-.1-.2v-8.4c0-.1 0-.2.1-.2.1-.1.2-.1.2-.1h1c.1 0 .2 0 .2.1.1.1.1.2.1.2v.3l.3-.3c.1-.1.3-.2.4-.3.2-.1.4-.1.6-.2.2-.1.5-.1.7-.1.4 0 .8.1 1.2.3.4.2.7.4.9.7.2.3.4.6.6 1 .1.4.2.8.2 1.2v1c0 .4-.1.8-.2 1.2-.1.4-.3.7-.6 1-.2.3-.6.5-.9.7-.4-.1-.8 0-1.2 0M253.9 19.9c3.2 0 5-1.3 5-3.9s-1.6-3.3-4.6-3.8c-1.7-.3-2.3-.5-2.3-1.3 0-.7.6-1.2 1.7-1.2s1.7.5 1.9 1.4h3c-.3-2.7-2.3-3.7-4.9-3.7-2.4 0-4.7 1.2-4.7 3.7 0 2.3 1.2 3.2 4.4 3.7 1.7.3 2.4.6 2.4 1.4 0 .8-.6 1.3-1.9 1.3-1.4 0-2-.6-2.1-1.7h-3.1c.1 2.7 2 4.1 5.2 4.1m-8.6 0c.9 0 1.6-.2 2-.3V17c-.4.2-.8.2-1.3.2-.8 0-1.3-.5-1.3-1.4V10h2.5V7.7h-2.5V5.1h-3.3v2.6H240v2.4h1.5v6c0 2.5 1.3 3.8 3.8 3.8m-9.7-7.4h-5.4c.3-1.7 1.3-2.7 2.7-2.7 1.7 0 2.6.9 2.7 2.7m-2.5 7.4c3.3 0 5.3-1.4 5.7-4h-3.1c-.2 1-1 1.7-2.5 1.7-1.8 0-2.9-1.1-3-3.1h8.5v-.9c0-4.3-2.7-6-5.8-6-3.5 0-6.1 2.4-6.1 6.1v.3c.1 3.7 2.8 5.9 6.3 5.9M218.9 2.5h-3.3v17.3h3.3v-5.6l4 5.6h3.8l-4.7-6.4 4.3-5.4h-3.5l-3.8 5-.1-10.5zm-9.3 5.3h-3.3v11.9h3.3v-5.9c0-2.3 1.4-3.1 3.9-3.1V7.6c-1.9 0-3.1.9-3.9 2.5V7.8zm-11.9 9.8c-1.2 0-1.7-.6-1.7-1.4 0-1.3 1.1-1.7 3-1.7h1.3v1c0 1.3-1.2 2.1-2.6 2.1m-1 2.3c1.9 0 2.9-.7 3.6-1.7v1.4h3.2v-7.7c0-3.2-2.1-4.4-5-4.4s-5.2 1.3-5.4 4.1h3.1c.1-1 .7-1.7 2-1.7 1.5 0 1.9.8 1.9 2.2v.5h-1.4c-3.7 0-6.1 1.1-6.1 3.8.2 2.5 2 3.5 4.1 3.5M178.1 3.4h-4.9v16.2h3.3V8.3l4.6 11.4h1.2l4.5-11.4v11.4h3.7V3.4h-4.8l-3.8 10.1-3.8-10.1zm-13.2-.9h-3.3v17.3h3.3V2.5zM153 17.6c-1.2 0-1.7-.6-1.7-1.4 0-1.3 1.1-1.7 3-1.7h1.3v1c-.1 1.3-1.2 2.1-2.6 2.1m-1 2.3c1.9 0 2.9-.7 3.6-1.7v1.4h3.2v-7.7c0-3.2-2.1-4.4-5-4.4s-5.2 1.3-5.4 4.1h3.1c.1-1 .7-1.7 2-1.7 1.5 0 1.9.8 1.9 2.2v.5h-1.3c-3.7 0-6.1 1.1-6.1 3.8 0 2.5 1.8 3.5 4 3.5m-7.5 0c.9 0 1.6-.2 2-.3V17c-.4.2-.8.2-1.3.2-.8 0-1.3-.5-1.3-1.4V10h2.5V7.7h-2.5V5.1h-3.3v2.6h-1.5v2.4h1.5v6c.1 2.5 1.4 3.8 3.9 3.8m-7.4-12.1h-3.3v11.9h3.3V7.8zm-1.5-1.6c1.1 0 1.9-.8 1.9-1.8s-.8-1.8-1.9-1.8c-1.1 0-1.9.8-1.9 1.8s.8 1.8 1.9 1.8m-10.8 10.5c-1.6 0-2.8-1.2-2.8-3.2v-.2c0-2 1-3.3 2.9-3.3 1.8 0 2.9 1.2 2.9 3.3v.2c-.1 1.9-1.3 3.2-3 3.2m-.2 7.4c3.9 0 6.2-1.8 6.2-5.4V7.8h-3.3v1.8c-.7-1.2-1.9-2.1-3.8-2.1-3 0-5.3 2.4-5.3 5.8v.2c0 3.5 2.3 5.7 5.2 5.7 1.8 0 3.2-1.1 3.8-2.2v1.8c0 1.9-1 2.9-3 2.9-1.7 0-2.4-.7-2.7-1.7h-3.3c.7 2.4 2.4 4.1 6.2 4.1m-8.2-16.3h-3.3v11.9h3.3V7.8zm-1.7-1.6c1.1 0 1.9-.8 1.9-1.8s-.8-1.8-1.9-1.8c-1.1 0-1.9.8-1.9 1.8s.8 1.8 1.9 1.8M102 16.8h-1.5V6.3h1.5c3.5 0 4.9 1.8 4.9 5.2v.2c-.1 3.3-1.6 5.1-4.9 5.1m.1-13.4h-5.4v16.2h5.3c5.7 0 8.5-3.3 8.5-8.1v-.1c.2-4.9-2.6-8-8.4-8M85.6 7.8h-3.3v11.9h3.3v-5.9c0-2.3 1.4-3.1 3.9-3.1V7.6c-1.9 0-3.1.9-3.9 2.5V7.8zm-8.8 4.7h-5.4c.3-1.7 1.3-2.7 2.7-2.7 1.8 0 2.6.9 2.7 2.7m-2.4 7.4c3.3 0 5.3-1.4 5.7-4H77c-.2 1-1 1.7-2.5 1.7-1.8 0-2.9-1.1-3-3.1H80v-.9c0-4.3-2.7-6-5.8-6-3.5 0-6.1 2.4-6.1 6.1v.3c.1 3.7 2.7 5.9 6.3 5.9M58.3 7.8H55v11.9h3.3v-6.8c0-1.8 1.1-2.6 2.5-2.6 1.5 0 2.1.8 2.1 2.4v7h3.3v-7.5c0-3.2-1.7-4.6-4-4.6-2 0-3.3 1-3.9 2.2v-2zm-7.5 12.1c.9 0 1.6-.2 2-.3V17c-.4.2-.8.2-1.3.2-.8 0-1.3-.5-1.3-1.4V10h2.5V7.7h-2.5V5.1h-3.3v2.6h-1.5v2.4h1.5v6c0 2.5 1.4 3.8 3.9 3.8M40.3 7.8H37v11.9h3.3v-5.9c0-2.3 1.4-3.1 3.9-3.1V7.6c-1.9 0-3.1.9-3.9 2.5V7.8zm-11.9 9.8c-1.2 0-1.7-.6-1.7-1.4 0-1.3 1.1-1.7 3-1.7H31v1c-.1 1.3-1.2 2.1-2.6 2.1m-1 2.3c1.9 0 2.9-.7 3.6-1.7v1.4h3.2v-7.7c0-3.2-2.1-4.4-5-4.4s-5.2 1.3-5.4 4.1h3.1c.1-1 .7-1.7 2-1.7 1.5 0 1.9.8 1.9 2.2v.5h-1.3c-3.7 0-6.1 1.1-6.1 3.8 0 2.5 1.9 3.5 4 3.5m-13.1 0c4.9 0 7.6-2.9 7.6-7.2V11h-7.2v2.7h3.7c-.1 1.9-1.2 3.5-3.9 3.5-3.2 0-4.5-2.3-4.5-5.4v-.2c0-3.3 1.7-5.5 4.5-5.5 2 0 3.2.9 3.5 2.8h3.7c-.4-4-3.6-5.7-7.2-5.7-4.8 0-8.2 3.4-8.2 8.2v.2c-.3 4.9 2.7 8.3 8 8.3"/></g></svg>